<svg xmlns="http://www.w3.org/2000/svg" xmlns:xlink="http://www.w3.org/1999/xlink" width="90" height="90" viewBox="0 0 90 90">
  <defs>
    <clipPath id="clip-path">
      <rect id="Rectangle_831" data-name="Rectangle 831" width="53.187" height="43.039" fill="none"/>
    </clipPath>
  </defs>
  <g id="icon3" transform="translate(-514 -5172.8)">
    <circle id="Ellipse_31" data-name="Ellipse 31" cx="45" cy="45" r="45" transform="translate(514 5172.8)" fill="rgba(65,184,234,0.1)"/>
    <g id="Group_2307" data-name="Group 2307" transform="translate(534.409 5198.307)">
      <g id="Group_2306" data-name="Group 2306" transform="translate(0 0)" clip-path="url(#clip-path)">
        <path id="Path_1787" data-name="Path 1787" d="M55.125,20.9c-5.36-.064-5.362-.066-5.566.242a7.707,7.707,0,0,1-6.023,3.425V18.018c1.94-.119,4.088-.665,5.305-2.206a.648.648,0,1,0-1.016-.8c-1.585,2-5.773,1.893-7.552,1.527a.656.656,0,0,0-.518.115l-3.794,2.827a1.507,1.507,0,0,1-2.1-.336,1.512,1.512,0,0,1,.356-2.115l2.7-2.111a.64.64,0,0,0,.179-.14l4.485-3.507a.649.649,0,1,0-.8-1.022L36.368,13.7H29.091l7.952-6.476A4.513,4.513,0,0,1,39.863,6.2l15.2-.1a.648.648,0,0,0,0-1.3h0l-15.2.1a5.817,5.817,0,0,0-3.631,1.31L27.038,13.7H15.365A4.412,4.412,0,0,0,10.958,18.1v11.1a4.412,4.412,0,0,0,4.407,4.406H39.13a4.412,4.412,0,0,0,4.407-4.406V25.863a9.184,9.184,0,0,0,6.913-3.724c1.122.01,4.661.053,4.661.053a.675.675,0,0,0,.656-.64.649.649,0,0,0-.641-.656m-39.761-5.9H34.711l-1.275,1a2.8,2.8,0,1,0,3.293,4.533L40.3,17.86a14.23,14.23,0,0,0,1.938.18V28.279H12.255V18.1a3.114,3.114,0,0,1,3.11-3.111M39.13,32.315H15.365a3.113,3.113,0,0,1-3.087-2.741H42.217a3.114,3.114,0,0,1-3.088,2.741" transform="translate(-2.579 -1.132)" fill="#00bdff"/>
        <path id="Path_1788" data-name="Path 1788" d="M17.645,50.825H14.766a.648.648,0,1,0,0,1.3h2.879a.648.648,0,1,0,0-1.3" transform="translate(-3.323 -11.961)" fill="#00bdff"/>
        <path id="Path_1789" data-name="Path 1789" d="M25.117,33.707a.648.648,0,0,0-.648.648v1.629H1.3V7.054H24.47V8.626a.648.648,0,1,0,1.3,0v-5.1A3.531,3.531,0,0,0,22.239,0H3.527A3.531,3.531,0,0,0,0,3.527V39.512A3.531,3.531,0,0,0,3.527,43.04H22.239a3.531,3.531,0,0,0,3.527-3.527V34.355a.648.648,0,0,0-.648-.648M1.3,3.527A2.233,2.233,0,0,1,3.527,1.3H22.239a2.232,2.232,0,0,1,2.231,2.23V5.758H1.3ZM22.239,41.743H3.527A2.234,2.234,0,0,1,1.3,39.512V37.282H24.47v2.231a2.233,2.233,0,0,1-2.231,2.231" transform="translate(0 0)" fill="#00bdff"/>
        <path id="Path_1790" data-name="Path 1790" d="M16.912,30.487h9.516a.648.648,0,0,0,0-1.3H16.912a.648.648,0,0,0,0,1.3" transform="translate(-3.828 -6.87)" fill="#00bdff"/>
        <path id="Path_1791" data-name="Path 1791" d="M16.912,26.042h9.516a.648.648,0,0,0,0-1.3H16.912a.648.648,0,1,0,0,1.3" transform="translate(-3.828 -5.824)" fill="#00bdff"/>
      </g>
    </g>
  </g>
</svg>
