<?xml version="1.0" encoding="UTF-8"?>
<svg id="Layer_1" data-name="Layer 1" xmlns="http://www.w3.org/2000/svg" viewBox="0 0 92.79 96.1">
  <defs>
    <style>
      .cls-1 {
        fill: #132a4a;
      }
    </style>
  </defs>
  <path class="cls-1" d="M19.89,87.2c1.1-.9,2.3-1.7,3.4-2.5,.9-.7,2.9-2.1,2.9-2.2C66.39,52,74.09,29.1,80.19,0,62.09,45.3,34.89,58.6,20.29,68.3c-9.3-10.8-12.6-25.7-7.5-39.4,3.9-10.4,12-18.1,21.8-22.1-14.2,3.3-26.4,13.2-31.8,27.6-7.3,19.5,.2,41.1,17.1,52.8h0q-.1,.1,0,0h0Z"/>
  <path class="cls-1" d="M90.99,58.3c-5.6,15-19.8,24.3-35.5,25.1C65.39,68.8,88.19,43,80.69,.1c-2.4,35.6-13.7,54.6-41,81.1h0c-3.3,3.2-6.7,6.4-10.5,9.9-.3,.3-.7,.6-1,1h0c.8,.3,1.6,.6,2.3,.9,24.2,9.1,50.8-2.5,59.5-25.8,2-5.2,2.8-10.6,2.8-15.8-.3,2.4-.9,4.7-1.8,6.9Z"/>
</svg>