<svg xmlns="http://www.w3.org/2000/svg" width="90" height="90" viewBox="0 0 90 90">
  <g id="quick_deposits" data-name="quick deposits" transform="translate(-503 -4833.146)">
    <g id="Group_2341" data-name="Group 2341" transform="translate(503 4833.529)">
      <g id="Group_2338" data-name="Group 2338" transform="translate(0 0)">
        <circle id="Ellipse_31" data-name="Ellipse 31" cx="45" cy="45" r="45" transform="translate(0 -0.383)" fill="rgba(65,184,234,0.1)"/>
        <g id="Group_2317" data-name="Group 2317" transform="translate(12.152 21.567)">
          <path id="Path_1792" data-name="Path 1792" d="M39.229,4.322h6.3a6.226,6.226,0,0,1,6.218,6.22v4.945L49.5,13.193a.732.732,0,1,0-1.045,1.026l3.505,3.571a.734.734,0,0,0,1.045,0l3.505-3.571a.732.732,0,1,0-1.044-1.026l-2.252,2.294V10.542a7.692,7.692,0,0,0-7.682-7.684h-6.3a.732.732,0,0,0,0,1.464" transform="translate(-10.808 -0.869)" fill="#00bdff"/>
          <path id="Path_1793" data-name="Path 1793" d="M25.425,49.341h-6.3A6.226,6.226,0,0,1,12.9,43.122V38.176l2.247,2.289A.732.732,0,1,0,16.2,39.44l-3.5-3.566a.732.732,0,0,0-1.045,0l-3.5,3.566a.731.731,0,1,0,1.044,1.025l2.248-2.289v4.946A7.691,7.691,0,0,0,19.122,50.8h6.3a.732.732,0,1,0,0-1.464" transform="translate(-7.25 -8.516)" fill="#00bdff"/>
          <path id="Path_1794" data-name="Path 1794" d="M75.382,53.495l-4.3-12.349a.809.809,0,0,0-.763-.542H64.991L60.885,28.819a.807.807,0,0,0-.763-.541H48.336a.808.808,0,0,0-.763.541L43.467,40.6H38.14a.809.809,0,0,0-.763.542l-4.3,12.349a.807.807,0,0,0,.763,1.073H74.619a.807.807,0,0,0,.763-1.073M48.91,29.893H59.548L63.28,40.6H58.531a.815.815,0,0,0-.179.023H50.106a.808.808,0,0,0-.179-.023H45.179Zm5.32,21.412-3.158-9.064h6.315ZM34.975,52.953l3.74-10.733h5.131a.843.843,0,0,0,.189.022h5.327l3.731,10.711Zm20.391,0L59.1,42.241h5.327a.837.837,0,0,0,.189-.022h5.131l3.74,10.733Z" transform="translate(-12.362 -9.632)" fill="#00bdff"/>
          <g id="Group_2316" data-name="Group 2316" transform="translate(4.341 3.024)">
            <path id="Path_1795" data-name="Path 1795" d="M14.273,11.536c-.863-.171-2.313-.658-2.313-1.985A2.3,2.3,0,0,1,14.48,7.566a2.712,2.712,0,0,1,2.141.945.6.6,0,1,0,.947-.745,3.875,3.875,0,0,0-2.793-1.393V4.84a.6.6,0,1,0-1.2,0V6.458a3.334,3.334,0,0,0-2.814,3.093c0,1.6,1.2,2.752,3.282,3.167,1.794.356,2.7,1.113,2.7,2.25a2.6,2.6,0,0,1-2.835,2.247,3.034,3.034,0,0,1-2.427-1.089.6.6,0,0,0-.957.732,4.187,4.187,0,0,0,3.048,1.549V19.8a.6.6,0,0,0,1.2,0v-1.46a3.633,3.633,0,0,0,3.17-3.371c0-1.742-1.3-2.961-3.673-3.432" transform="translate(-3.123 -1.273)" fill="#00bdff"/>
            <path id="Path_1796" data-name="Path 1796" d="M11.054,0A11.055,11.055,0,1,0,22.108,11.054,11.067,11.067,0,0,0,11.054,0m0,20.9a9.85,9.85,0,1,1,9.849-9.85,9.861,9.861,0,0,1-9.849,9.85" fill="#00bdff"/>
          </g>
          <rect id="Rectangle_832" data-name="Rectangle 832" width="64.005" height="44.936" fill="none"/>
        </g>
      </g>
    </g>
  </g>
</svg>
