<svg xmlns="http://www.w3.org/2000/svg" xmlns:xlink="http://www.w3.org/1999/xlink" width="90" height="90" viewBox="0 0 90 90">
  <defs>
    <clipPath id="clip-path">
      <rect id="Rectangle_829" data-name="Rectangle 829" width="53.601" height="55.96" fill="none"/>
    </clipPath>
  </defs>
  <g id="icon1" transform="translate(-905 -4813)">
    <circle id="Ellipse_29" data-name="Ellipse 29" cx="45" cy="45" r="45" transform="translate(905 4813)" fill="rgba(65,184,234,0.1)"/>
    <g id="Group_2303" data-name="Group 2303" transform="translate(923.071 4830.007)">
      <g id="Group_2302" data-name="Group 2302" clip-path="url(#clip-path)">
        <path id="Path_1783" data-name="Path 1783" d="M53.432,27.466a5.561,5.561,0,0,0-5.6-1.5c-2.417.561-3.787,2.3-5.16,4.916L38.4,33.1a4.554,4.554,0,0,0-3.345-1.26H28.842a5.909,5.909,0,0,1-1.2-.8,5.778,5.778,0,0,0-3.195-1.558h-5.9c-1.862,0-4.02,1.4-5.3,2.589l-.021.021L9.115,36.195l-1.75-1.75a.861.861,0,0,0-1.217,0l-5.9,5.9a.861.861,0,0,0,0,1.217L14.4,55.707a.862.862,0,0,0,1.218,0l5.895-5.9a.86.86,0,0,0,0-1.218l-1.746-1.746a1.743,1.743,0,0,1,1.138-.322H37.413c.442,0,1.181,0,5.45-3.972,2.088-1.942,4.15-4.037,4.625-4.569a63.2,63.2,0,0,0,6.044-9.667.861.861,0,0,0-.1-.852M15.01,53.881,2.079,40.949l4.678-4.678L19.688,49.2ZM46.2,36.839c-1.461,1.638-7.6,7.576-8.843,7.966H20.906a3.4,3.4,0,0,0-2.36.821l-8.214-8.214,4.1-4.1c1.1-1.022,2.854-2.118,4.118-2.118h5.9a4.982,4.982,0,0,1,2.148,1.2,4.161,4.161,0,0,0,2.234,1.155h6.23c1.848,0,2.676,1.048,2.676,2.086S36.9,37.73,35.055,37.73H25.622v1.722h9.433c2.887,0,4.4-1.916,4.4-3.809a3.591,3.591,0,0,0-.164-1.07l4.416-2.292a.869.869,0,0,0,.369-.371c1.425-2.774,2.51-3.891,4.145-4.271a4.349,4.349,0,0,1,3.49.524A67.367,67.367,0,0,1,46.2,36.839" transform="translate(0 0)" fill="#00bdff"/>
        <rect id="Rectangle_828" data-name="Rectangle 828" width="1.721" height="3.335" transform="translate(6.148 41.559) rotate(-45)" fill="#00bdff"/>
        <path id="Path_1784" data-name="Path 1784" d="M19.408,9.975h7.711V29.159h1.722V1.721h7.711V30.338h1.721V18.229h7.711v6.213h1.722V17.368a.86.86,0,0,0-.861-.861H38.273V.861A.86.86,0,0,0,37.412,0H27.98a.86.86,0,0,0-.861.861V8.253H18.547a.862.862,0,0,0-.861.861V27.979h1.722Z" transform="translate(0 0)" fill="#00bdff"/>
      </g>
    </g>
  </g>
</svg>
