<svg xmlns="http://www.w3.org/2000/svg" xmlns:xlink="http://www.w3.org/1999/xlink" width="90" height="90" viewBox="0 0 90 90">
  <defs>
    <clipPath id="clip-path">
      <rect id="Rectangle_833" data-name="Rectangle 833" width="47.34" height="50.172" fill="none"/>
    </clipPath>
  </defs>
  <g id="Reputable_" data-name="Reputable &amp;" transform="translate(-1303 -5173.22)">
    <circle id="Ellipse_31" data-name="Ellipse 31" cx="45" cy="45" r="45" transform="translate(1303 5173.22)" fill="rgba(65,184,234,0.1)"/>
    <g id="Group_2311" data-name="Group 2311" transform="translate(1324.135 5193.206)">
      <g id="Group_2310" data-name="Group 2310" transform="translate(0 0)" clip-path="url(#clip-path)">
        <path id="Path_1797" data-name="Path 1797" d="M46.65,8.693A12.572,12.572,0,0,1,36.119.5L35.936,0H11.4l-.183.5A12.572,12.572,0,0,1,.69,8.693L0,8.76v9.09A33.428,33.428,0,0,0,6.334,37.5a34.671,34.671,0,0,0,17.09,12.586l.246.084.246-.084A34.677,34.677,0,0,0,41.007,37.5,33.434,33.434,0,0,0,47.34,17.851V8.76Zm-.84,9.158A31.89,31.89,0,0,1,39.772,36.6a33.162,33.162,0,0,1-16.1,11.956A33.162,33.162,0,0,1,7.568,36.6,31.893,31.893,0,0,1,1.531,17.851V10.13a14.121,14.121,0,0,0,10.935-8.6H34.875a14.121,14.121,0,0,0,10.935,8.6Z" transform="translate(0 0)" fill="#00bdff"/>
        <path id="Path_1798" data-name="Path 1798" d="M32.8,7.958l-.227-.332H16.46l-.228.332a19.443,19.443,0,0,1-8.151,6.774l-.455.2V18.7a26.6,26.6,0,0,0,5.022,15.643,27.55,27.55,0,0,0,11.566,9.317l.3.13.3-.13a27.539,27.539,0,0,0,11.566-9.317A26.594,26.594,0,0,0,41.407,18.7V14.934l-.454-.2A19.45,19.45,0,0,1,32.8,7.958M39.878,18.7a25.056,25.056,0,0,1-4.726,14.739,26.048,26.048,0,0,1-10.633,8.683,26.065,26.065,0,0,1-10.635-8.683A25.065,25.065,0,0,1,9.158,18.7V15.922a20.974,20.974,0,0,0,8.1-6.766H31.773a20.967,20.967,0,0,0,8.1,6.766Z" transform="translate(-0.847 -0.847)" fill="#00bdff"/>
        <path id="Path_1799" data-name="Path 1799" d="M24.216,29.031,18.4,23.215,17.318,24.3l6.9,6.9,9.045-9.045-1.083-1.082Z" transform="translate(-1.923 -2.34)" fill="#00bdff"/>
      </g>
    </g>
  </g>
</svg>
