<svg xmlns="http://www.w3.org/2000/svg" xmlns:xlink="http://www.w3.org/1999/xlink" width="90" height="90" viewBox="0 0 90 90">
  <defs>
    <clipPath id="clip-path">
      <rect id="Rectangle_830" data-name="Rectangle 830" width="62.363" height="55.82" fill="none"/>
    </clipPath>
  </defs>
  <g id="icon2" transform="translate(-1303 -4813)">
    <circle id="Ellipse_32" data-name="Ellipse 32" cx="45" cy="45" r="45" transform="translate(1303 4813)" fill="rgba(65,184,234,0.1)"/>
    <g id="Group_2305" data-name="Group 2305" transform="translate(1316.344 4830.033)">
      <g id="Group_2304" data-name="Group 2304" clip-path="url(#clip-path)">
        <path id="Path_1785" data-name="Path 1785" d="M62.361,50.707a4.968,4.968,0,0,0-1.685-3.56l-4.793-4.2a16.013,16.013,0,0,0-13.26-23.653q-.206-.009-.411-.015V0H30.457V10.325H19.8V20.517H9.769V30.653H0V42.805H27.688a16.15,16.15,0,0,0,2.268,3.217,15.9,15.9,0,0,0,11.071,5.247c.273.014.545.02.816.02a15.871,15.871,0,0,0,7.647-1.95l4.2,4.794a4.968,4.968,0,0,0,3.56,1.685l.161,0a4.952,4.952,0,0,0,4.95-5.113M40.49,1.722V19.328a15.848,15.848,0,0,0-8.312,3.18V1.722ZM19.8,41.083H11.491V22.239H19.8ZM1.722,32.375H9.769v8.708H1.722Zm19.8,8.708V12.047h8.932V24.014A16.035,16.035,0,0,0,26.9,41.083Zm19.588,8.466A14.285,14.285,0,0,1,41.808,21q.363,0,.729.018a14.285,14.285,0,1,1-1.424,28.535m18.583,3.6A3.228,3.228,0,0,1,54.985,53l-4.014-4.581a16.019,16.019,0,0,0,3.991-3.988l4.579,4.013a3.228,3.228,0,0,1,.155,4.711" transform="translate(0 0)" fill="#00bdff"/>
        <path id="Path_1786" data-name="Path 1786" d="M35.067,28.524a9.556,9.556,0,1,0,13.514,0,9.566,9.566,0,0,0-13.514,0m12.3,12.3a7.834,7.834,0,1,1,2.3-5.54,7.843,7.843,0,0,1-2.3,5.54" transform="translate(0 0)" fill="#00bdff"/>
      </g>
    </g>
  </g>
</svg>
