<svg xmlns="http://www.w3.org/2000/svg" xmlns:xlink="http://www.w3.org/1999/xlink" width="75.121" height="68.067" viewBox="0 0 75.121 68.067">
  <defs>
    <clipPath id="clip-path">
      <rect id="Rectangle_165" data-name="Rectangle 165" width="75.121" height="68.067" fill="#132a4a" stroke="#132a4a" stroke-width="1.8"/>
    </clipPath>
  </defs>
  <g id="Group_239" data-name="Group 239" transform="translate(3 2)">
    <g id="Group_238" data-name="Group 238" transform="translate(-3 -2)" clip-path="url(#clip-path)">
      <path id="Path_305" data-name="Path 305" d="M34.815,5.771h.234l.021,0h.086l.042,0h.083l.044,0,.042,0h.042l.042,0h.042l.021,0h.023l.042,0,.042,0,.042,0,.042,0h.044l.042,0,.042,0,.042,0,.042,0,.042,0h.016l.028,0,.042,0,.042,0,.042,0,.042,0,.035,0h.007l.042,0,.042,0,.042,0,.042,0,.042,0h.014l.028,0,.042,0,.042,0,.042,0,.042,0,.032,0h.009l.042,0,.042,0,.042,0,.042,0,.081.009.042.007.042,0,.042,0,.042,0,.026,0h.016l.042.007.039,0,.042.007.042,0,.042.007h0l.162.023c.482.072.958.167,1.431.278V5.929a4.113,4.113,0,0,0-8.225,0v.322c.473-.111.949-.206,1.431-.278L32.3,5.95h0l.042-.007.042,0,.042-.007.039,0L32.5,5.92h.016l.025,0,.042,0,.042,0,.042,0,.042-.007.081-.009.042,0,.042,0,.042,0,.042,0h.009l.032,0,.042,0,.042,0,.042,0,.042,0,.028,0h.014l.042,0,.042,0,.042,0,.042,0,.042,0h.007l.035,0,.042,0,.042,0,.042,0,.042,0,.028,0h.016l.042,0,.042,0,.042,0,.042,0,.042,0h.042l.044,0,.042,0,.042,0,.042,0h.023l.021,0h.042l.042,0h.042l.042,0,.044,0h.083l.042,0h.086l.021,0h.234ZM57.178,39.5A.9.9,0,1,1,55.9,38.22a8.5,8.5,0,0,0,0-12.032A.905.905,0,0,1,57.178,24.9a10.312,10.312,0,0,1,0,14.6M60.4,43.1a.905.905,0,1,1-1.283-1.278,13.577,13.577,0,0,0,0-19.225A.907.907,0,0,1,60.4,21.31a15.395,15.395,0,0,1,0,21.786m3.224,3.6a.909.909,0,1,1-1.285-1.285,18.649,18.649,0,0,0,0-26.411.908.908,0,1,1,1.285-1.283,20.485,20.485,0,0,1,0,28.979M12.447,24.9a.909.909,0,0,1,1.285,1.285,8.427,8.427,0,0,0-1.846,2.751,8.534,8.534,0,0,0,1.846,9.281A.908.908,0,0,1,12.447,39.5a10.329,10.329,0,0,1,0-14.6M9.225,21.31a.907.907,0,0,1,1.283,1.283,13.594,13.594,0,0,0,0,19.222A.907.907,0,0,1,9.225,43.1a15.4,15.4,0,0,1,0-21.788M6,17.715A.908.908,0,0,1,7.286,19a18.646,18.646,0,0,0,0,26.411A.909.909,0,1,1,6,46.693,20.482,20.482,0,0,1,6,17.715M41.34,57.883a6.524,6.524,0,1,1-13.048,0v-.909H41.34Zm-3.2,3.329c.649-.65,1.376-1.7,1.292-4.252H30.2c-.084,2.519.642,3.6,1.29,4.252a4.71,4.71,0,0,0,6.657,0M40.744,6.8a17.027,17.027,0,0,1,6.673,4.451,19.632,19.632,0,0,1,5.038,13.479c0,.3-.028,1.744-.063,3.577-.074,4.08-.186,10.185-.091,11.259a15.528,15.528,0,0,0,2.2,7.049,13.105,13.105,0,0,0,3.384,3.551.9.9,0,0,1,.364.728l0,4.008a.911.911,0,0,1-.909.909H12.282a.911.911,0,0,1-.909-.909V50.9a.906.906,0,0,1,.425-.768,13.009,13.009,0,0,0,3.329-3.51,15.492,15.492,0,0,0,2.2-7.049c.1-1.074-.014-7.181-.088-11.264-.035-1.83-.063-3.278-.063-3.575a19.631,19.631,0,0,1,5.038-13.477A17.008,17.008,0,0,1,28.886,6.8V5.929a5.91,5.91,0,0,1,1.742-4.185l0,0a5.9,5.9,0,0,1,8.369,0l0,0a5.91,5.91,0,0,1,1.742,4.185Zm5.347,5.685A15.178,15.178,0,0,0,35.657,7.611l-.012,0-.1,0-.039,0h-.037l-.028,0H35.39l-.039,0-.037,0h-.077l0,0H35.16l-.04,0h-.153l-.037,0H34.7l-.037,0h-.153l-.039,0H34.4l0,0h-.077l-.037,0-.039,0h-.049l-.028,0h-.037l-.039,0-.1,0-.012,0a15.178,15.178,0,0,0-10.434,4.878,17.818,17.818,0,0,0-4.546,12.245c0,.675.023,1.948.051,3.547.076,4.12.19,10.285.083,11.454a17.247,17.247,0,0,1-2.47,7.852,14.572,14.572,0,0,1-3.465,3.76V54H56.44V51.344a14.536,14.536,0,0,1-3.468-3.76A17.282,17.282,0,0,1,50.5,39.732c-.1-1.169.009-7.332.083-11.452.03-1.6.053-2.872.053-3.547A17.822,17.822,0,0,0,46.09,12.489" transform="translate(2.746 1.831)" fill="#132a4a" stroke="#132a4a" stroke-width="1.8"/>
    </g>
  </g>
</svg>
