<svg xmlns="http://www.w3.org/2000/svg" xmlns:xlink="http://www.w3.org/1999/xlink" width="106" height="74" viewBox="0 0 106 74">
  <defs>
    <clipPath id="clip-path">
      <rect id="Rectangle_167" data-name="Rectangle 167" width="106" height="74" transform="translate(-2 -23.664)" fill="#132a4a"/>
    </clipPath>
  </defs>
  <g id="Group_244" data-name="Group 244" transform="translate(2 23.664)">
    <g id="Group_243" data-name="Group 243" transform="translate(0 0)" clip-path="url(#clip-path)">
      <path id="Path_313" data-name="Path 313" d="M140.386,37.573A10.786,10.786,0,1,0,129.6,26.786a10.787,10.787,0,0,0,10.786,10.787m0-17.721a6.934,6.934,0,1,1-6.934,6.934,6.942,6.942,0,0,1,6.934-6.934" transform="translate(-59.354 -8.809)" fill="#132a4a"/>
      <path id="Path_314" data-name="Path 314" d="M135.795,70.234a25.415,25.415,0,0,1,2.412,2.828,13.65,13.65,0,0,1,19.038,14.859h3.641A17.244,17.244,0,0,0,143.8,68.266a17.175,17.175,0,0,0-8,1.968" transform="translate(-62.765 -37.585)" fill="#132a4a"/>
      <path id="Path_315" data-name="Path 315" d="M101.392,93.123h4.854a29.123,29.123,0,0,0-58.246,0h4.854a24.269,24.269,0,0,1,48.538,0" transform="translate(-26.427 -42.787)" fill="#132a4a"/>
      <path id="Path_316" data-name="Path 316" d="M84.988,33.977A16.988,16.988,0,1,0,68,16.988,16.988,16.988,0,0,0,84.988,33.977m0-29.426A12.438,12.438,0,1,1,72.55,16.988,12.452,12.452,0,0,1,84.988,4.55" transform="translate(-34.293 -17.618)" fill="#132a4a"/>
      <path id="Path_317" data-name="Path 317" d="M3.81,87.922A13.653,13.653,0,0,1,22.849,73.063a25.36,25.36,0,0,1,2.412-2.828A17.257,17.257,0,0,0,0,85.525a17.423,17.423,0,0,0,.169,2.4Z" transform="translate(3 -37.586)" fill="#132a4a"/>
      <path id="Path_318" data-name="Path 318" d="M25.186,37.573A10.786,10.786,0,1,0,14.4,26.786,10.787,10.787,0,0,0,25.186,37.573m0-17.721a6.934,6.934,0,1,1-6.934,6.934,6.942,6.942,0,0,1,6.934-6.934" transform="translate(-4.928 -8.809)" fill="#132a4a"/>
    </g>
  </g>
</svg>
